<svg xmlns="http://www.w3.org/2000/svg" width="1842" height="998" viewBox="0 0 1842 998" version="1.1"><path d="M 345 17.512 L 297.500 34.795 297.735 82.147 L 297.969 129.500 286.728 136.298 C 266.526 148.514, 247.367 162.945, 220.862 185.910 L 216.926 189.320 169.332 174.124 C 121.809 158.952, 121.736 158.932, 120.250 161.054 C 119.431 162.223, 105.540 180.927, 89.381 202.618 C 73.221 224.310, 60 242.230, 60 242.440 C 60 242.651, 73.316 262.274, 89.590 286.048 C 111.402 317.910, 119.055 329.829, 118.702 331.386 C 118.439 332.549, 115.937 339.460, 113.142 346.744 C 107.017 362.710, 101.353 381.613, 97.035 400.499 C 95.275 408.199, 93.697 414.636, 93.528 414.805 C 93.360 414.974, 72.584 422.220, 47.361 430.907 L 1.500 446.702 1.500 498.994 L 1.500 551.286 34.500 562.637 C 52.650 568.880, 73.426 576.053, 80.668 578.578 L 93.837 583.168 95.487 590.834 C 100.384 613.577, 108.621 640.859, 116.367 659.991 L 119.805 668.483 120.351 663.991 C 120.651 661.521, 121.616 652.525, 122.496 644 C 128.910 581.837, 147.356 518.135, 175.922 459.500 C 191.974 426.552, 207.099 401.440, 226.387 375.717 C 249.659 344.679, 279.886 313.557, 306.221 293.519 C 310.224 290.473, 317.325 284.804, 322 280.922 C 346.885 260.260, 381.666 242.080, 416.520 231.515 C 431.316 227.030, 453.390 222.532, 471.035 220.405 C 487.786 218.387, 523.271 218.110, 539 219.876 C 564.359 222.722, 596.599 230.111, 622.239 238.952 L 633.979 243 741.024 243 C 842.674 243, 848.022 242.912, 847.104 241.250 C 842.044 232.089, 812.304 200.600, 793.639 184.641 C 772.609 166.660, 743.139 145.461, 721.706 132.897 L 715.912 129.500 716.206 82.174 L 716.500 34.849 670 18.065 C 644.425 8.834, 622.575 0.991, 621.444 0.635 C 619.683 0.081, 614.965 5.500, 588.444 38.536 L 557.500 77.084 546 76.292 C 530.962 75.256, 482.652 75.275, 468 76.322 L 456.500 77.143 425.541 38.572 C 408.513 17.357, 394.113 0.052, 393.541 0.115 C 392.968 0.178, 371.125 8.007, 345 17.512" stroke="none" fill="#0260a3" fill-rule="evenodd"/><path d="M 296 301.707 C 282.763 312.669, 254.002 341.372, 243.101 354.500 C 225.237 376.013, 206.631 402.733, 192.965 426.500 C 183.999 442.094, 166.196 478.991, 159.672 495.500 C 140.344 544.416, 127.336 596.423, 122.529 644 C 121.668 652.525, 120.612 661.525, 120.183 664 C 119.550 667.646, 113.768 676.721, 89.701 711.839 C 73.366 735.675, 60 755.349, 60 755.560 C 60 755.770, 73.221 773.690, 89.381 795.382 C 105.540 817.073, 119.431 835.777, 120.250 836.946 C 121.736 839.068, 121.809 839.048, 169.332 823.876 L 216.926 808.680 220.862 812.090 C 247.367 835.055, 266.526 849.486, 286.728 861.702 L 297.969 868.500 297.735 915.850 L 297.500 963.201 345.500 980.572 C 371.900 990.127, 393.743 997.957, 394.041 997.972 C 394.338 997.987, 408.513 980.643, 425.541 959.428 L 456.500 920.857 468 921.678 C 486.108 922.972, 537.943 922.648, 551.500 921.156 C 567.182 919.431, 574.256 917.941, 593.196 912.377 C 607.825 908.079, 608.927 907.587, 609.406 905.133 C 610.578 899.114, 628.156 756.823, 627.774 756.441 C 627.545 756.211, 622.889 757.851, 617.429 760.084 C 561.356 783.014, 491.662 787.110, 429.861 771.106 C 393.294 761.637, 354.468 742.097, 325.052 718.359 C 314.007 709.446, 297.231 692.670, 288.694 682 C 255.041 639.936, 236.163 592.981, 228.791 533 C 226.744 516.352, 227.081 467.583, 229.353 451.500 C 238.046 389.973, 259.903 342.927, 298.926 301.750 C 303.486 296.938, 307.056 293.003, 306.859 293.006 C 306.661 293.009, 301.775 296.925, 296 301.707" stroke="none" fill="#fbc304" fill-rule="evenodd"/><path d="M 479.090 278.051 C 469.431 279.259, 453.161 283.204, 444.690 286.392 C 404.296 301.597, 369.617 337.152, 352.050 381.374 C 336.230 421.200, 333.967 475.997, 346.552 514.565 C 358.985 552.670, 387.417 582.739, 421.500 593.827 C 435.520 598.389, 443.690 599.505, 462.500 599.430 C 477.085 599.372, 481.063 598.997, 490.500 596.791 C 516.797 590.644, 536.487 579.452, 555.750 559.703 C 560.288 555.051, 564 551.624, 564 552.088 C 564 554.791, 558.668 587.483, 557.409 592.500 C 552.026 613.948, 542.648 630.667, 530.646 640.209 C 524.572 645.038, 513.891 650.287, 505.500 652.567 C 496.497 655.013, 475.145 655.590, 466.741 653.614 C 448.112 649.234, 437.694 638.600, 433.564 619.750 L 432.962 617 375.981 617 C 344.641 617, 319.007 617.337, 319.016 617.750 C 319.024 618.163, 319.908 622.651, 320.979 627.725 C 331.710 678.563, 365.316 711.517, 419.500 724.337 C 438.568 728.849, 453.280 730.356, 478.500 730.382 C 503.036 730.407, 514.136 729.388, 533.500 725.334 C 583.961 714.769, 626.166 686.360, 642.984 651.638 C 655.926 624.919, 663.149 595.383, 673.956 525 C 676.701 507.125, 686.158 446.614, 694.973 390.532 C 703.788 334.450, 711 288.212, 711 287.782 C 711 287.352, 688.059 287, 660.019 287 L 609.038 287 608.512 289.250 C 608.223 290.488, 606.659 299.767, 605.038 309.872 C 603.416 319.976, 601.928 328.405, 601.730 328.603 C 601.532 328.801, 598.736 325.800, 595.515 321.934 C 577.289 300.053, 552.782 285.192, 525.500 279.475 C 516.045 277.494, 489.953 276.693, 479.090 278.051 M 1233.660 280.986 C 1205.904 285.996, 1179.096 305.547, 1165.059 331.016 C 1163.396 334.032, 1162.028 335.991, 1162.018 335.369 C 1162.001 334.279, 1167.403 296.881, 1168.535 290.250 L 1169.091 287 1116.648 287 L 1064.205 287 1063.129 293.250 C 1062.537 296.688, 1051.695 364.975, 1039.034 445 C 1026.374 525.025, 1015.779 591.513, 1015.489 592.750 L 1014.962 595 1032.026 595 L 1049.091 595 1048.511 598.250 C 1047.047 606.449, 1003 888.502, 1003 889.674 C 1003 890.751, 1009.837 891, 1039.421 891 L 1075.841 891 1076.401 888.250 C 1076.708 886.737, 1080.128 865.475, 1083.999 841 C 1087.871 816.525, 1091.143 795.930, 1091.269 795.234 C 1091.396 794.537, 1103.200 815.795, 1117.500 842.473 L 1143.500 890.979 1222.205 890.989 L 1300.909 891 1301.466 887.750 C 1301.772 885.962, 1305.173 863.800, 1309.025 838.500 C 1312.876 813.200, 1316.730 788.992, 1317.589 784.704 C 1323.877 753.309, 1336.825 738.369, 1358.764 737.191 C 1369.210 736.631, 1374.751 738.148, 1380.395 743.116 C 1390.849 752.318, 1390.791 756.188, 1379.106 830.106 C 1374.098 861.790, 1370 888.452, 1370 889.356 C 1370 890.852, 1373.341 891, 1407 891 C 1436.513 891, 1444 890.739, 1444 889.712 C 1444 889.004, 1448.023 863.016, 1452.939 831.962 C 1457.856 800.908, 1462.415 769.875, 1463.069 763 C 1465.920 733.057, 1461.059 708.710, 1449.557 695.322 C 1434.426 677.711, 1398.002 671.086, 1370.829 681.003 C 1358.839 685.379, 1348.838 692.087, 1337.250 703.526 C 1331.612 709.091, 1327 713.509, 1327 713.344 C 1327 712.579, 1331.091 687.240, 1331.535 685.250 L 1332.038 683 1252.269 683.027 L 1172.500 683.053 1134.091 726.034 C 1112.965 749.673, 1095.536 768.869, 1095.359 768.692 C 1095.181 768.514, 1101.357 729.249, 1109.083 681.435 C 1116.809 633.621, 1128.280 561.653, 1134.574 521.507 C 1140.868 481.361, 1147.110 443.984, 1148.444 438.447 C 1153.362 418.039, 1161.031 402.877, 1171.910 392.055 C 1184.062 379.967, 1197.853 374.856, 1218.500 374.792 C 1229.786 374.756, 1249.731 377.204, 1251.087 378.790 C 1251.421 379.181, 1249.529 392.775, 1246.883 409 C 1239.186 456.204, 1237.688 469.237, 1237.628 489.500 C 1237.552 515.288, 1241.168 531.230, 1250.813 547.632 C 1268.483 577.681, 1302.801 597.605, 1349 604.636 C 1364.954 607.064, 1400.898 607.073, 1417.317 604.653 C 1456.777 598.839, 1488.175 584.364, 1509.060 562.358 C 1525.061 545.499, 1537.639 518.281, 1547.363 479.475 C 1552.767 457.907, 1555.196 444.192, 1567.535 365.572 C 1573.842 325.383, 1579.263 291.262, 1579.581 289.750 L 1580.159 287 1525.579 287 C 1495.561 287, 1471 287.140, 1471 287.311 C 1471 288.034, 1453.641 397.331, 1450.413 416.937 C 1440.551 476.818, 1425.919 508.619, 1403.124 519.710 C 1398.093 522.158, 1396.392 522.448, 1387 522.458 C 1374.985 522.471, 1370.161 521.302, 1363.376 516.736 C 1356.797 512.309, 1352.441 506.214, 1349.759 497.684 C 1347.769 491.357, 1347.508 488.472, 1347.564 473.500 C 1347.620 458.401, 1348.093 453.705, 1351.794 431.500 C 1354.086 417.750, 1360.007 380.850, 1364.952 349.500 C 1369.897 318.150, 1374.170 291.262, 1374.447 289.750 L 1374.950 287 1325.475 287 L 1276 287 1276 284.617 C 1276 283.020, 1275.258 282.002, 1273.750 281.531 C 1270.239 280.435, 1239.060 280.012, 1233.660 280.986 M 729.521 289.250 C 729.236 290.488, 724.751 317.150, 719.554 348.500 C 704.278 440.653, 701.001 465.737, 701.004 490.500 C 701.009 526.383, 709.596 548.226, 732.011 569.371 C 752.366 588.573, 779.739 600.222, 816 605.113 C 828.187 606.756, 864.688 606.788, 877 605.166 C 916.223 599.997, 948.693 585.960, 969.826 565.035 C 989.950 545.109, 1004.788 510.598, 1015.414 459 C 1018.247 445.245, 1043 291.731, 1043 287.918 C 1043 287.372, 1020.998 287, 988.708 287 L 934.415 287 930.144 314.250 C 917.266 396.417, 910.674 435.893, 907.973 447.038 C 900.155 479.289, 890.959 499.057, 878.048 511.373 C 870.322 518.742, 862.876 522.180, 853.310 522.794 C 835.169 523.958, 820.654 516.689, 815.060 503.641 C 807.474 485.942, 809.071 468.298, 830.044 338.115 C 834.420 310.953, 838 288.340, 838 287.865 C 838 287.389, 813.710 287, 784.019 287 L 730.038 287 729.521 289.250 M 505.500 367.892 C 496.299 370.184, 490.134 373.015, 482.539 378.435 C 466.823 389.649, 456.077 406.330, 450.835 427.644 C 447.976 439.271, 447.706 461.181, 450.302 471 C 456.246 493.484, 472.390 509.964, 493.876 515.483 C 502.031 517.577, 519.434 517.639, 528.207 515.604 C 555.944 509.172, 578.740 484.331, 585.636 453.024 C 588.024 442.184, 588.486 424.770, 586.646 415 C 582.186 391.325, 565.858 373.974, 542.391 367.972 C 532.466 365.434, 515.512 365.397, 505.500 367.892 M 1628.532 574.250 C 1628.013 576.555, 1579 889.436, 1579 890.443 C 1579 890.749, 1595.377 891, 1615.393 891 C 1643.596 891, 1651.889 890.719, 1652.246 889.750 C 1652.499 889.063, 1656.034 867.464, 1660.103 841.754 C 1664.171 816.044, 1667.725 795.020, 1668 795.035 C 1668.275 795.051, 1679.929 816.464, 1693.898 842.620 C 1707.867 868.776, 1719.792 890.367, 1720.398 890.599 C 1721.004 890.832, 1740.930 890.904, 1764.677 890.761 L 1807.854 890.500 1773.940 837.500 L 1740.025 784.500 1790.513 734.361 C 1818.281 706.784, 1841 683.947, 1841 683.611 C 1841 683.275, 1820.188 683.030, 1794.750 683.067 L 1748.500 683.134 1710.145 726.129 C 1689.050 749.776, 1671.663 768.984, 1671.507 768.812 C 1671.350 768.640, 1678.110 725.750, 1686.528 673.500 C 1694.947 621.250, 1702.068 577.038, 1702.354 575.250 L 1702.874 572 1665.956 572 L 1629.038 572 1628.532 574.250 M 1540.500 583.386 C 1519.378 588.523, 1506.118 610.247, 1511.422 631.026 C 1514.548 643.274, 1522.094 652.727, 1532.690 657.671 C 1561.419 671.073, 1593.446 647.455, 1589.019 616.132 C 1586.602 599.036, 1574.372 586.204, 1557.526 583.089 C 1550.312 581.756, 1546.963 581.814, 1540.500 583.386 M 703.652 624.750 C 703.386 625.712, 701.248 639.212, 698.900 654.750 L 694.630 683 677.315 683 C 667.792 683, 660 683.229, 660 683.509 C 660 683.788, 658.200 695.260, 656 709 C 653.800 722.740, 652 734.662, 652 735.491 C 652 736.777, 654.517 737, 669.045 737 L 686.091 737 685.514 740.250 C 683.917 749.240, 662 888.507, 662 889.660 C 662 890.756, 668.650 891, 698.481 891 L 734.962 891 735.488 888.750 C 736.212 885.656, 758.995 739.806, 758.998 738.250 C 758.999 737.304, 762.739 737, 774.358 737 L 789.717 737 786.341 745.406 C 779.682 761.992, 776.998 776.773, 777.004 796.822 C 777.020 846.607, 799.518 880.127, 841.828 893.404 C 854.476 897.372, 866.705 898.992, 884 898.990 C 909.869 898.987, 928.016 895.153, 947.527 885.567 C 958.333 880.258, 976 867.904, 976 865.656 C 976 865.030, 967.173 855.683, 956.385 844.885 L 936.770 825.252 928.297 832.050 C 912.727 844.543, 898.837 849.598, 882.500 848.720 C 866.454 847.858, 856.718 842.284, 851.038 830.708 C 848.302 825.133, 846.137 814.989, 846.031 807.250 L 846 805 923.920 805 L 1001.841 805 1002.623 798.250 C 1003.714 788.843, 1003.415 771.840, 1001.993 762.421 C 995.840 721.647, 968.064 690.380, 929.135 680.406 C 899.339 672.772, 864.103 676.292, 837.965 689.513 C 826.335 695.395, 814.106 704.964, 805.250 715.112 C 802.362 718.420, 800 720.466, 800 719.657 C 800 718.848, 801.125 710.452, 802.500 701 C 803.875 691.548, 805 683.631, 805 683.407 C 805 683.183, 796.655 683, 786.455 683 L 767.909 683 768.470 679.750 C 770.941 665.435, 777 626.510, 777 624.951 C 777 623.052, 776.028 623, 740.567 623 C 706.720 623, 704.101 623.124, 703.652 624.750 M 1504.548 684.250 C 1504.333 684.938, 1497.101 730.500, 1488.475 785.500 C 1479.850 840.500, 1472.558 886.737, 1472.271 888.250 L 1471.750 891 1508.856 891 L 1545.962 891 1546.485 888.750 C 1546.963 886.689, 1579 684.383, 1579 683.421 C 1579 683.189, 1562.336 683, 1541.969 683 C 1513.218 683, 1504.850 683.280, 1504.548 684.250 M 1211.727 736.790 L 1164.042 784.500 1196.271 835.144 C 1213.997 862.999, 1228.641 885.413, 1228.814 884.953 C 1229.338 883.556, 1259.920 689.586, 1259.657 689.324 C 1259.523 689.189, 1237.954 710.549, 1211.727 736.790 M 888.270 727.054 C 882.393 728.214, 875.684 731.327, 869.879 735.589 C 863.481 740.286, 854.849 752.326, 852.559 759.750 L 851.865 762 892.933 762 L 934 762 934 759.682 C 934 752.212, 927.227 738.762, 921.235 734.332 C 911.874 727.411, 899.878 724.763, 888.270 727.054" stroke="none" fill="#040404" fill-rule="evenodd"/></svg>